<?xml version="1.0" encoding="utf-8"?>
<!-- Generator: Adobe Illustrator 16.0.3, SVG Export Plug-In . SVG Version: 6.00 Build 0)  -->
<!DOCTYPE svg PUBLIC "-//W3C//DTD SVG 1.1//EN" "http://www.w3.org/Graphics/SVG/1.1/DTD/svg11.dtd">
<svg version="1.1" id="Capa_1" xmlns="http://www.w3.org/2000/svg" xmlns:xlink="http://www.w3.org/1999/xlink" x="0px" y="0px"
	 width="200px" height="200px" viewBox="0 0 200 200" enable-background="new 0 0 200 200" xml:space="preserve">
<path fill="#FFFFFF" d="M150.537,69.134c0.121-10.131,0.197-20.324,0.047-22.655c-1.489-23.124-21.43-42.748-45.397-44.678
	c-1.502-0.121-3.006-0.189-4.471-0.204C87.648,1.462,76.115,5.544,66.437,13.731c-9.603,8.124-15.911,20.097-16.875,32.026
	c-0.173,2.149-0.198,12.924-0.187,23.394c-9.523,1.895-16.683,10.019-16.683,19.755v89.328c0,11.141,9.376,20.173,20.941,20.173
	h92.732c11.565,0,20.941-9.032,20.941-20.173V88.906C167.308,79.141,160.104,70.997,150.537,69.134z M99.263,22.376
	c0.356-0.008,0.707-0.009,1.059-0.006c10.159,0.105,19.06,5.13,24.422,13.787c3.002,4.848,4.069,19.067,4.355,32.575H70.894
	c0.37-13.246,1.398-27.774,4.176-32.298C80.426,27.713,89.244,22.589,99.263,22.376z"/>
</svg>
