<?xml version="1.0" encoding="utf-8"?>
<!-- Generator: Adobe Illustrator 16.0.3, SVG Export Plug-In . SVG Version: 6.00 Build 0)  -->
<!DOCTYPE svg PUBLIC "-//W3C//DTD SVG 1.1//EN" "http://www.w3.org/Graphics/SVG/1.1/DTD/svg11.dtd">
<svg version="1.1" id="Capa_1" xmlns="http://www.w3.org/2000/svg" xmlns:xlink="http://www.w3.org/1999/xlink" x="0px" y="0px"
	 width="200px" height="200px" viewBox="0 0 200 200" enable-background="new 0 0 200 200" xml:space="preserve">
<g>
	<g>
		<path fill="#FFFFFF" d="M142.654,42.694c0,23.579-19.1,42.696-42.655,42.696c-23.561,0-42.658-19.117-42.658-42.696
			c0-23.583,19.098-42.696,42.658-42.696C123.555-0.002,142.654,19.111,142.654,42.694z"/>
	</g>
	<g>
		<path fill="#FFFFFF" d="M99.999,99.996L99.999,99.996c-43.712,0-79.142,35.466-79.142,79.213l0,0
			c0,11.482,9.298,20.789,20.765,20.789h116.749c11.471,0,20.771-9.307,20.771-20.789l0,0
			C179.143,135.462,143.706,99.996,99.999,99.996z"/>
	</g>
</g>
</svg>
